<?xml version="1.0" encoding="UTF-8"?>
<svg xmlns="http://www.w3.org/2000/svg" version="1.1" viewBox="0 0 1000 600">
  <defs>
    <style>
      .cls-1 {
        fill: none;
        stroke: red;
        stroke-miterlimit: 10;
        stroke-width: 59px;
      }
    </style>
  </defs>
  <!-- Generator: Adobe Illustrator 28.6.0, SVG Export Plug-In . SVG Version: 1.2.0 Build 709)  -->
  <g>
    <g id="jbc">
      <path d="M190.3,98.4h52.3v267.8c0,106.3-52.3,138.9-121.1,138.9s-42.8-4.2-55.2-9.5l7.1-42.2c10.7,4.2,26.1,7.7,43.9,7.7,46.3,0,73-20.8,73-99.2V98.4Z"/>
      <path d="M328.7,104.3c22.6-5.3,58.8-8.9,94.4-8.9,51.7,0,84.9,8.9,109.3,29.1,20.8,15.4,33.8,39.2,33.8,70.7s-26.1,73-67.7,87.9v1.8c38,8.9,82.5,40.4,82.5,99.8s-13.7,61.2-34.4,80.2c-27.3,25.5-72.4,37.4-137.8,37.4s-62.9-2.4-80.2-4.8V104.3h.1ZM380.3,268.2h46.9c54,0,86.1-29.1,86.1-67.7s-35-65.3-87.3-65.3-37.4,1.8-45.7,3.6v129.4ZM380.3,459.4c10.7,1.8,24.9,2.4,43.3,2.4,53.4,0,102.7-19.6,102.7-77.8s-46.9-77.2-103.3-77.2h-42.8v152.6h0Z"/>
      <path d="M929.6,486.1c-18.4,9.5-57,19-105.7,19-112.8,0-197.1-71.3-197.1-203.1s84.9-210.2,209-210.2,81.4,10.7,95,17.8l-13.1,42.2c-19-9.5-46.9-16.6-80.2-16.6-93.8,0-156.2,60-156.2,165.1s56.4,160.9,153.2,160.9,64.1-6.5,84.9-16.6l10.2,41.5Z"/>
    </g>
    <g id="Calque_2">
      <path class="cls-1" d="M219,95.4c1,86.6,0,218.6,0,218.6,0,0,11,103-28,140s-61,28-86,25-38.7-7-38.7-7c0,0-94.2-36.1,24.7-45s123.7,40.9,123.7,40.9c0,0,42.3,42.1,45.3,43.1s45,3.6,61-8.7,27-10.3,31-29.3,0-105,0-105l1.8-135v-112s16.2-10,57.2-9,80,15,80,15c0,0,46,20,47,47s-11.7,63-11.7,63c0,0-19.8,15.4-73,31.2s-82.2,15.8-82.2,15.8c0,0,108-4.7,129,19.7s48,46.9,49,80.6-9.4,51.7-35.7,69.7-39.3,25-71.3,29-86,0-86,0l-59,10,114,42h170l-12-266.8,17-207.2,232-43,157,44-12,73.2h-40.1s-71.7-52.1-160.9-12.2-103,123-103,123c0,0-16,74,9,133,28.4,67.1,71.6,96,110.8,103s109.6,5.4,146.4-13.8,28.8-15.2,28.8-15.2"/>
    </g>
  </g>
</svg>